HIERARCHY
ROOT joint_Root
{
	OFFSET 0.0 0.0 0.0
	CHANNELS 6 Xposition Yposition Zposition Zrotation Xrotation Yrotation 
	JOINT Hips
	{
		OFFSET -17.1583 93.1646 452.98
		CHANNELS 6 Xposition Yposition Zposition Zrotation Xrotation Yrotation 
		JOINT Spine
		{
			OFFSET 15.7357 0.0 0.0
			CHANNELS 6 Xposition Yposition Zposition Zrotation Xrotation Yrotation 
			JOINT Chest
			{
				OFFSET 8.98455 -0.406207 0.0
				CHANNELS 6 Xposition Yposition Zposition Zrotation Xrotation Yrotation 
				JOINT Neck
				{
					OFFSET 16.3773 0.0 0.0
					CHANNELS 6 Xposition Yposition Zposition Zrotation Xrotation Yrotation 
					JOINT Head
					{
						OFFSET 6.45672 0.0 0.0
						CHANNELS 6 Xposition Yposition Zposition Zrotation Xrotation Yrotation 
						End Site
						{
							OFFSET 0.0 0.0 0.0
						}
					}
				}
				JOINT Shoulder_L
				{
					OFFSET 12.9942 -0.242716 4.98039
					CHANNELS 6 Xposition Yposition Zposition Zrotation Xrotation Yrotation 
					JOINT UpperArm_L
					{
						OFFSET 5.34809 0.0 0.0
						CHANNELS 6 Xposition Yposition Zposition Zrotation Xrotation Yrotation 
						JOINT LowerArm_L
						{
							OFFSET 24.3286 1.87007e-05 0.0
							CHANNELS 6 Xposition Yposition Zposition Zrotation Xrotation Yrotation 
							JOINT Hand_L
							{
								OFFSET 22.2916 0.0 0.0
								CHANNELS 6 Xposition Yposition Zposition Zrotation Xrotation Yrotation 
								End Site
								{
									OFFSET 0.0 0.0 0.0
								}
							}
						}
					}
				}
				JOINT Shoulder_R
				{
					OFFSET 12.9945 -0.242716 -4.98039
					CHANNELS 6 Xposition Yposition Zposition Zrotation Xrotation Yrotation 
					JOINT UpperArm_R
					{
						OFFSET -5.34813 0.0 0.0
						CHANNELS 6 Xposition Yposition Zposition Zrotation Xrotation Yrotation 
						JOINT LowerArm_R
						{
							OFFSET -24.3289 0.000322201 0.0
							CHANNELS 6 Xposition Yposition Zposition Zrotation Xrotation Yrotation 
							JOINT Hand_R
							{
								OFFSET -22.2915 -0.000108084 0.0
								CHANNELS 6 Xposition Yposition Zposition Zrotation Xrotation Yrotation 
								End Site
								{
									OFFSET 0.0 0.0 0.0
								}
							}
						}
					}
				}
			}
		}
		JOINT UpperLeg_L
		{
			OFFSET -2.19248 -6.46944 0.0
			CHANNELS 6 Xposition Yposition Zposition Zrotation Xrotation Yrotation 
			JOINT LowerLeg_L
			{
				OFFSET 39.0811 0.0 -1.23785e-05
				CHANNELS 6 Xposition Yposition Zposition Zrotation Xrotation Yrotation 
				JOINT Foot_L
				{
					OFFSET 40.9854 0.0 -1.26872e-05
					CHANNELS 6 Xposition Yposition Zposition Zrotation Xrotation Yrotation 
					JOINT Toes_L
					{
						OFFSET 11.7543 0.0 0.0
						CHANNELS 6 Xposition Yposition Zposition Zrotation Xrotation Yrotation 
						End Site
						{
							OFFSET 0.0 0.0 0.0
						}
					}
				}
			}
		}
		JOINT UpperLeg_R
		{
			OFFSET -2.19251 6.46944 0.0
			CHANNELS 6 Xposition Yposition Zposition Zrotation Xrotation Yrotation 
			JOINT LowerLeg_R
			{
				OFFSET -39.0811 -0.00228153 -0.0401928
				CHANNELS 6 Xposition Yposition Zposition Zrotation Xrotation Yrotation 
				JOINT Foot_R
				{
					OFFSET -40.9854 0.0 0.0
					CHANNELS 6 Xposition Yposition Zposition Zrotation Xrotation Yrotation 
					JOINT Toes_R
					{
						OFFSET -11.7543 0.0 0.0
						CHANNELS 6 Xposition Yposition Zposition Zrotation Xrotation Yrotation 
						End Site
						{
							OFFSET 0.0 0.0 0.0
						}
					}
				}
			}
		}
	}
}
MOTION
Frames:	6
Frame Time:	0.0333333
0.000000 0.000000 0.000000 0.000000 0.000000 -0.000000 2.575060 92.816100 -0.558441 88.798800 2.499700 5.909980 15.735700 0.000005 -0.000001 97.859500 86.315100 -97.390600 8.984550 -0.406207 -0.000000 -0.469229 0.973858 0.941354 16.377300 -0.000001 -0.000001 8.072600 1.086350 -2.752320 6.456720 -0.000001 -0.000000 -6.283270 -1.178860 -0.771275 12.994200 -0.242716 4.980390 -93.518800 9.969940 -70.446200 5.348090 -0.000007 -0.000001 -69.880500 26.530600 -3.652480 24.328600 0.000019 0.000005 9.328690 28.211300 -19.162200 22.291600 -0.000001 0.000005 -9.233010 5.186850 3.024420 12.994500 -0.242716 -4.980390 87.456700 7.121630 -70.288300 -5.348130 -0.000001 -0.000004 -69.579400 30.735000 -4.776950 -24.328900 0.000322 -0.000009 0.987612 3.753630 -14.767500 -22.291500 -0.000108 -0.000004 0.112186 5.295250 0.205227 -2.192480 -6.469440 -0.000000 -175.632000 -7.404860 1.548550 39.081100 -0.000007 -0.000012 0.046210 -0.132905 19.172300 40.985400 -0.000006 -0.000013 2.424660 15.580400 -69.174700 11.754300 -0.000000 0.000003 -0.002029 0.196705 -8.596270 -2.192510 6.469440 -0.000001 173.070000 10.584500 -174.687000 -39.081100 -0.002282 -0.040193 -0.000807 0.017043 13.653500 -40.985400 0.000008 0.000006 -8.464850 7.054240 -66.897100 -11.754300 -0.000006 -0.000006 -0.011632 0.283122 -5.067410
0.000000 0.000000 0.000000 0.000000 0.000000 -0.000000 2.518150 92.830500 -0.665756 88.839100 2.605730 5.814160 15.735700 0.000005 -0.000001 99.598300 86.242600 -99.112400 8.984550 -0.406207 -0.000000 -0.361299 1.218280 0.975122 16.377300 -0.000001 -0.000001 7.644120 0.831959 -2.124700 6.456720 -0.000001 -0.000000 -6.812690 -1.373400 -0.478282 12.994200 -0.242716 4.980390 -93.738200 10.615600 -70.471800 5.348090 -0.000007 -0.000001 -67.008500 27.724300 -5.579470 24.328600 0.000019 0.000005 10.961000 31.752000 -20.204300 22.291600 -0.000001 0.000005 -14.022100 5.282970 0.493153 12.994500 -0.242716 -4.980390 87.552500 6.911070 -70.444200 -5.348130 -0.000001 -0.000004 -69.961200 30.204700 -4.314570 -24.328900 0.000322 -0.000009 0.967951 3.528000 -15.370800 -22.291500 -0.000108 -0.000004 0.016076 5.295710 0.192202 -2.192480 -6.469440 -0.000000 -175.640000 -7.429410 1.400200 39.081100 -0.000007 -0.000012 0.045867 -0.132411 19.106000 40.985400 -0.000006 -0.000013 2.392480 15.755400 -69.099900 11.754300 -0.000000 0.000003 -0.001757 0.193264 -8.736170 -2.192510 6.469440 -0.000001 173.116000 10.457800 -174.916000 -39.081100 -0.002282 -0.040193 0.000156 0.012958 13.772000 -40.985400 0.000008 0.000006 -8.653940 6.833350 -66.902700 -11.754300 -0.000006 -0.000006 -0.011419 0.281619 -5.128940
0.000000 0.000000 0.000000 0.000000 0.000000 -0.000000 2.415810 92.869700 -0.813332 88.823100 2.752650 5.466460 15.735700 0.000005 -0.000001 101.787000 86.208700 -101.198000 8.984550 -0.406207 -0.000000 -0.350569 1.506860 1.182420 16.377300 -0.000001 -0.000001 6.839380 0.567235 -1.321100 6.456720 -0.000001 -0.000000 -7.686210 -1.658550 0.041446 12.994200 -0.242716 4.980390 -93.952200 11.265200 -70.523100 5.348090 -0.000007 -0.000001 -62.591700 28.071900 -8.230410 24.328600 0.000019 0.000005 13.388500 34.122400 -22.991100 22.291600 -0.000001 0.000005 -20.207200 5.386330 -2.563030 12.994500 -0.242716 -4.980390 87.649700 6.666280 -70.528800 -5.348130 -0.000001 -0.000004 -70.112800 29.950400 -3.771240 -24.328900 0.000322 -0.000009 0.918016 3.128140 -16.382400 -22.291500 -0.000108 -0.000004 -0.059858 5.298170 0.123617 -2.192480 -6.469440 -0.000000 -175.629000 -7.245320 1.005290 39.081100 -0.000007 -0.000012 0.045803 -0.133499 18.936900 40.985400 -0.000006 -0.000013 2.265750 15.760100 -68.991900 11.754300 -0.000000 0.000003 -0.001768 0.193407 -8.730380 -2.192510 6.469440 -0.000001 173.213000 10.646000 -175.300000 -39.081100 -0.002282 -0.040193 -0.000924 0.017545 13.636200 -40.985400 0.000008 0.000006 -9.089550 6.867470 -66.585900 -11.754300 -0.000006 -0.000006 -0.011467 0.281957 -5.115100
0.000000 0.000000 0.000000 0.000000 0.000000 -0.000000 2.289550 92.949100 -0.983360 88.809500 2.982600 4.836100 15.735700 0.000005 -0.000001 103.457000 86.288300 -102.635000 8.984550 -0.406207 -0.000000 -0.557774 1.667480 1.652700 16.377300 -0.000001 -0.000001 5.832880 0.503343 -0.632499 6.456720 -0.000001 -0.000000 -8.779000 -1.856970 0.681612 12.994200 -0.242716 4.980390 -94.008900 11.390200 -70.461800 5.348090 -0.000007 -0.000001 -57.350000 25.800000 -11.819700 24.328600 0.000019 0.000005 14.419100 33.308300 -25.089700 22.291600 -0.000001 0.000005 -23.885700 5.462280 -5.093980 12.994500 -0.242716 -4.980390 87.710800 6.506430 -70.567800 -5.348130 -0.000001 -0.000004 -69.762400 29.859000 -3.289490 -24.328900 0.000322 -0.000009 0.993140 3.138270 -17.588000 -22.291500 -0.000108 -0.000004 -0.186612 5.304880 -0.065166 -2.192480 -6.469440 -0.000000 -175.593000 -7.297550 0.462711 39.081100 -0.000007 -0.000012 0.042723 -0.127984 18.460100 40.985400 -0.000006 -0.000013 2.124060 16.064000 -68.794700 11.754300 -0.000000 0.000003 -0.001638 0.191717 -8.799070 -2.192510 6.469440 -0.000001 173.257000 11.187600 -175.767000 -39.081100 -0.002282 -0.040193 -0.003443 0.029129 13.096300 -40.985400 0.000008 0.000006 -10.084700 7.239350 -65.889300 -11.754300 -0.000006 -0.000006 -0.011489 0.282117 -5.108530
0.000000 0.000000 0.000000 0.000000 0.000000 -0.000000 2.137140 93.039400 -1.121950 88.809300 3.439350 4.110080 15.735700 0.000005 -0.000001 103.647000 86.490200 -102.436000 8.984550 -0.406207 -0.000000 -0.959901 1.563640 2.434410 16.377300 -0.000001 -0.000001 4.955030 0.514375 -0.201263 6.456720 -0.000001 -0.000000 -9.837320 -1.878690 1.367610 12.994200 -0.242716 4.980390 -93.892400 10.993200 -70.363600 5.348090 -0.000007 -0.000001 -52.015800 20.130700 -16.609800 24.328600 0.000019 0.000005 13.312600 31.188500 -24.556500 22.291600 -0.000001 0.000005 -23.460300 5.464850 -5.189620 12.994500 -0.242716 -4.980390 87.821500 6.195300 -70.582600 -5.348130 -0.000001 -0.000004 -69.387400 29.041200 -2.821280 -24.328900 0.000322 -0.000009 1.040870 3.116190 -18.498200 -22.291500 -0.000108 -0.000004 -0.171946 5.311700 -0.258081 -2.192480 -6.469440 -0.000000 -175.542000 -7.447350 -0.126905 39.081100 -0.000007 -0.000012 0.036337 -0.112808 17.854700 40.985400 -0.000006 -0.000013 1.999790 16.677300 -68.550500 11.754300 -0.000000 0.000003 -0.001725 0.192845 -8.753210 -2.192510 6.469440 -0.000001 173.283000 12.048300 -176.141000 -39.081100 -0.002282 -0.040193 -0.004051 0.033924 12.283500 -40.985400 0.000008 0.000006 -11.148100 7.613300 -64.962700 -11.754300 -0.000006 -0.000006 -0.011206 0.280102 -5.191010
0.000000 0.000000 0.000000 0.000000 0.000000 -0.000000 1.967590 93.128600 -1.201150 88.802800 4.339510 3.480770 15.735700 0.000005 -0.000001 101.355000 86.795700 -99.652300 8.984550 -0.406207 -0.000000 -1.497430 1.123880 3.419130 16.377300 -0.000001 -0.000001 4.150010 0.557885 0.164267 6.456720 -0.000001 -0.000000 -10.582400 -1.775300 2.351710 12.994200 -0.242716 4.980390 -93.586400 10.234900 -70.570500 5.348090 -0.000007 -0.000001 -47.143500 11.762300 -21.834400 24.328600 0.000019 0.000005 12.190000 30.941500 -22.789400 22.291600 -0.000001 0.000005 -19.637600 5.424850 -3.806450 12.994500 -0.242716 -4.980390 87.907400 5.909400 -70.460300 -5.348130 -0.000001 -0.000004 -68.965500 27.445800 -2.359990 -24.328900 0.000322 -0.000009 1.115230 3.287190 -18.768600 -22.291500 -0.000108 -0.000004 0.030898 5.315500 -0.366512 -2.192480 -6.469440 -0.000000 -175.413000 -7.673470 -0.598646 39.081100 -0.000007 -0.000012 0.028533 -0.092140 17.206500 40.985400 -0.000006 -0.000013 1.925920 17.789900 -68.353700 11.754300 -0.000000 0.000003 -0.001699 0.192516 -8.766600 -2.192510 6.469440 -0.000001 173.470000 12.742600 -176.568000 -39.081100 -0.002282 -0.040193 -0.002299 0.026558 11.978100 -40.985400 0.000008 0.000006 -11.414100 7.363240 -64.523200 -11.754300 -0.000006 -0.000006 -0.010839 0.277470 -5.298760
